<svg xmlns="http://www.w3.org/2000/svg" id="Capa_1" width="190" height="190" viewBox="0 0 189.6 189.6">
	<path d="M152.3 143.7c-7.8-8.5-21.2-24.8-34.6-25.3 0.7-2.5 0.8-4.8 0-6.8 4.8-0.4 9.6-0.9 14.4-1.1 5-0.3 9.9-0.3 14.9 0 4.2 0.3 7.7 2.2 11.7 2.7 2 0.3 3.4-1.3 2.9-3 1-0.6 1.6-1.8 1.4-3.2 -2-13.9-0.4-27.9-2.3-41.8 -1.6-11.7-4.8-22.9-10.6-33.3C138.3 11 114.7 0.1 91.2 0c-22.5-0.1-45.7 12.2-52.5 34.5 -3.1 10.2-1.8 21.4-0.3 31.8 1.6 11.2 6.7 32.4-4.2 40.7 -0.7 0.5-0.9 1.2-0.9 1.9 -0.1 0-0.1 0-0.2 0.1 -2.5 1-1.6 4.8 1.1 4.1 2.2-0.5 4.3-0.9 6.6-1 8.4 1.6 18.4 0.5 26.9 0.3 0.1 0.4 0.2 0.8 0.2 1.2 -0.4 0.4-0.7 0.9-0.6 1.6 0.1 1 0.2 2 0.3 2.9 -21.6 15.9-47.5 35.5-46.7 65 0 1.3 0.9 2.6 2.2 2.9 11.9 2.3 23.9 1.8 36 1.2 14.4-0.7 28.7 0 43 0.4 14.9 0.5 29.8 1 44.7 1.5 5.4 0.2 14.1 2 18.1-2.9C175.4 174 160.5 152.7 152.3 143.7zM149 43.7c1.3 3.1 2.3 6.2 3.1 9.4 -1-3.1-2-6.3-3.1-9.4C149 43.7 149 43.7 149 43.7zM138 100.2c-0.7 0.1-1.4 0.1-2.2 0.2 0.2-0.1 0.5-0.2 0.7-0.4 0.6-0.4 1.1-0.9 1.7-1.4C138 99.2 137.9 99.7 138 100.2zM64.2 90.9c-8.6-9.7-10.4-21.4-12.3-33.4 3.9 1.4 10.1 1.7 11.1 1.7 10.9 0.3 21.7-1.4 32.5-2.4 1.5-0.1 3.3-1.3 3.1-3.1 -0.5-4.5-0.9-8.8-0.7-13.2 6.5 5.8 10.3 14.4 19.2 17.4 4.2 1.4 13.8 2.4 19.8 0.8 3.6 5.9-2.5 19.3-4.5 24.7 -5 13-17.5 21.8-31.1 23C86.9 107.6 73.6 101.6 64.2 90.9zM108.7 122.2c-2.9 5.8-6.7 11.2-10.5 16.5 -6.6 9.1-14.2 19.2-23.2 26.6 -0.3-15.3-0.1-30.5-3-45.5 0.1-0.5 0-1.1-0.3-1.5 -0.1-0.4-0.1-0.7-0.2-1.1 0 0 0-0.1 0-0.1 0.1-1.4 0.1-3.1 0.5-4.6 10.2 0.2 20.2 1.2 30.4 0.6 3.3-0.2 6.5-0.5 9.7-0.7C110.9 115.4 110.3 119 108.7 122.2z" />
	<path d="M81.1 76.3c-0.5-2.5-1.7-4.9-2.1-7.5 -0.4-3-4.5-3.1-4.8 0 -0.3 3 0.1 6.2 1 9.1C76.4 81.7 81.9 80.1 81.1 76.3z" />
	<path d="M116.5 74.8c-0.4-2.8-0.7-6-1.8-8.6 -0.8-2-3.5-1-4.1 0.5 -0.6 1.5-0.3 3.5-0.2 5.1 0 0.9 0.1 1.8 0 2.8 0 0 0 0.1 0 0.1 -0.1 0.3-0.1 0.6-0.1 0.9 0.2 2 1.5 3.9 3.8 3.3C115.8 78.4 116.7 76.5 116.5 74.8z" />
</svg>
