<svg>
	<defs>
		<g id="shape-icon-mail">
			<path d="m434.146 59.882h-389.234c-24.766 0-44.912 20.146-44.912 44.912v269.47c0 24.766 20.146 44.912 44.912 44.912h389.234c24.766 0 44.912-20.146 44.912-44.912v-269.47c0-24.766-20.146-44.912-44.912-44.912zm0 29.941c2.034 0 3.969.422 5.738 1.159l-200.355 173.649-200.356-173.649c1.769-.736 3.704-1.159 5.738-1.159zm0 299.411h-389.234c-8.26 0-14.971-6.71-14.971-14.971v-251.648l199.778 173.141c2.822 2.441 6.316 3.655 9.81 3.655s6.988-1.213 9.81-3.655l199.778-173.141v251.649c-.001 8.26-6.711 14.97-14.971 14.97z" />
		</g>
		<g id="shape-icon-facebook">
			<path d="m6.812 13.937h2.518v9.312c0 .414.335.75.75.75l4.007.001c.415 0 .75-.337.75-.75v-9.312h2.387c.378 0 .697-.282.744-.657l.498-4c.056-.446-.293-.843-.744-.843h-2.885c.113-2.471-.435-3.202 1.172-3.202 1.088-.13 2.804.421 2.804-.75v-3.577c0-.375-.277-.692-.648-.743-.314-.043-1.555-.166-3.094-.166-7.01 0-5.567 7.772-5.74 8.437h-2.519c-.414 0-.75.336-.75.75v4c0 .414.336.75.75.75zm.75-3.999h2.518c.414 0 .75-.336.75-.75v-3.151c0-2.883 1.545-4.536 4.24-4.536.878 0 1.686.043 2.242.087v2.149c-.402.205-3.976-.884-3.976 2.697v2.755c0 .414.336.75.75.75h2.786l-.312 2.5h-2.474c-.414 0-.75.336-.75.75v9.311h-2.505v-9.312c0-.414-.336-.75-.75-.75h-2.519z" />
		</g>
		<g id="shape-icon-tweet">
			<path d="M508.3 94.2c-2.6-2.6-6.9-3.5-10.4-2.6l-17.4 6.1c10.4-12.1 17.4-25.2 21.7-37.3 1.7-4.3 0.9-7.8-1.7-10.4 -2.6-2.6-6.9-3.5-10.4-1.7 -24.3 10.4-45.1 19.1-62.5 24.3 0 0.9-0.9 0-1.7 0 -13.9-7.8-47.7-25.2-72-25.2 -61.6 0.9-111.1 52.9-111.1 116.3v3.5c-90.3-17.4-139.7-43.4-193.5-99.8L40.6 58.7l-5.2 10.4c-29.5 56.4-8.7 107.6 25.2 142.3 -15.6-2.6-26-7.8-35.6-15.6 -3.5-2.6-7.8-3.5-12.1-0.9 -3.5 1.7-5.2 6.9-4.3 11.3 12.1 40.8 42.5 73.8 75.5 93.7 -15.6 0-28.6-1.7-41.7-10.4 -3.5-1.7-8.7-1.7-12.1 0.9s-5.2 6.9-3.5 11.3c15.6 44.3 46 67.7 94.6 73.8 -25.2 14.8-58.1 26.9-109.3 27.8 -5.2 0-9.5 3.5-11.3 7.8 -1.7 5.2 0 9.5 3.5 13 31.2 25.2 100.7 39.9 186.6 39.9 152.7 0 277.7-136.2 277.7-303.7v-2.6c19.1-9.5 34.7-27.8 42.5-52.9C511.8 101.2 510.9 96.8 508.3 94.2zM456.3 143.7l-5.2 1.7v14.8c0 157.9-117.2 286.4-260.3 286.4 -79 0-131.9-13-160.5-26.9 59.9-4.3 94.6-23.4 121.5-44.3l21.7-15.6h-26c-49.5 0-79.8-13.9-97.2-46.9 15.6 5.2 32.1 5.2 50.3 4.3 6.9-0.9 13.9-0.9 20.8-0.9l2.6-17.4c-33-9.5-72-39.1-91.1-79 17.4 7.8 36.4 9.5 53.8 9.5h26.9L91.8 214c-18.2-13-72-59-46-125 55.5 54.7 108.5 79.8 203.9 97.2l10.4 1.7v-24.3c0-53.8 41.7-98.1 93.7-98.9 20-0.9 52.9 17.4 62.5 22.6 5.2 2.6 10.4 3.5 15.6 1.7 13-4.3 28.6-10.4 46-17.4 -7.8 13-18.2 25.2-32.1 36.4 -3.5 2.6-4.3 7.8-2.6 12.1 1.7 4.3 6.9 6.1 11.3 4.3l33.8-11.3C482.3 124.6 472.8 137.6 456.3 143.7z" />
		</g>
	</defs>
</svg>
